<?xml version="1.0" encoding="utf-8"?>
<!-- Generator: Adobe Illustrator 19.0.0, SVG Export Plug-In . SVG Version: 6.00 Build 0)  -->
<svg version="1.1" id="Layer_1" xmlns="http://www.w3.org/2000/svg" xmlns:xlink="http://www.w3.org/1999/xlink" x="0px" y="0px"
	 viewBox="0 0 255 255" style="enable-background:new 0 0 255 255;" xml:space="preserve">
<style type="text/css">
	.st0{fill:#302624;stroke:#4D362D;stroke-miterlimit:10;}
	.st1{fill:none;stroke:#4D362D;stroke-miterlimit:10;}
	.st2{fill:#FEECE0;stroke:#686969;stroke-miterlimit:10;}
	.st3{fill:none;stroke:#686969;stroke-miterlimit:10;}
	.st4{fill:#524341;stroke:#302624;stroke-width:2;stroke-miterlimit:10;}
	.st5{fill:#302624;}
	.st6{fill:#FFFFFF;}
	.st7{fill:none;stroke:#463349;stroke-width:3;stroke-miterlimit:10;}
	.st8{fill:#FFFFFF;stroke:#919191;stroke-miterlimit:10;}
	.st9{fill:#C2B3BD;stroke:#686969;stroke-miterlimit:10;}
	.st10{fill:#FFFFFF;stroke:#686969;stroke-miterlimit:10;}
</style>
<g id="XMLID_1_">
	<g id="head">
		<g id="back-hair">
			<path id="XMLID_109_" class="st0" d="M99,34.7c3.1,0.8,5.6,3.1,6.6,5.7c1,2.6-3.9,1.3-3.9,1.3S101.1,36.7,99,34.7z"/>
			<path id="XMLID_4_" class="st0" d="M214.9,255c1.1-5.1,1.8-11.1,1.9-18.4c0.2-32.3-14.8-41.9-21.8-59.1
				c-11.5-28.2-4.9-30.8-1.3-49.1c4.3-21.5,7.2-57.1-29-83.9c-29.8-18.3-60.8-8.3-61.7-5.3c-3.3-0.9-30.3,4.8-41.3,41.5
				s11.4,63.2-1.6,83.4c-9.2,14.4-18.9,24-18.1,35.8c0.7,10.2,6.3,11.4,0.8,26.4c-2.3,8.8-6.6,16.3-3.8,28.9L214.9,255z"/>
			<path id="XMLID_107_" class="st0" d="M69.7,98.7c-6.4,35.2,8.3,36.4,3.1,63.9c-4.1,15.5-9.1,19.1-23,32.1
				c-9.6,9-15.8,23.6-1.5,40c-4.1-12.6-6.2-24.6,8.1-32.6s24.7-17.1,24.5-24.7"/>
			<path id="XMLID_8_" class="st1" d="M83.3,142.3c4.8,14.8,2.1,29.3-2.3,44.1C71.1,220.3,47.6,233.1,46,255"/>
			<path id="XMLID_7_" class="st1" d="M92.1,155.4c1.7,15-0.1,32.8-8.7,51.5c-10.8,23.6-19.4,35-21.1,48.1"/>
			<path id="XMLID_104_" class="st1" d="M200.1,254.7c2.8-6.9,9.3-25.4-4.6-45.6c-9.9-14.3-22.8-31.3-21.2-45.5"/>
			<path id="XMLID_6_" class="st1" d="M187.5,255c3.1-9.8,3.7-20.5,2-29.6c-2.8-15.3-24.7-45.8-22-63.3"/>
			<path id="XMLID_5_" class="st1" d="M164.5,162.1c-1,12.8-1.3,24.8,6,46.6c4.6,13.9,7.7,31.6,6,46.3"/>
			<path id="XMLID_3_" class="st1" d="M106.1,163.7c0.3,8.6,3.4,26-9.3,48C89,225.2,81.3,241.1,78.7,255"/>
			<path id="XMLID_100_" class="st0" d="M201.4,128.2c5.5-5.3,9.1-17.2,0-30.5s-10.9-22.9-16.1-31.8s8,25.2,12,30
				S210.5,116.4,201.4,128.2z"/>
			<path id="XMLID_99_" class="st0" d="M53,128.2c-5.5-5.3-9.1-17.2,0-30.5s10.9-22.9,16.1-31.8s-8,25.2-12,30S43.8,116.4,53,128.2z
				"/>
		</g>
		<g id="face">
			<path id="right-ear" class="st2" d="M68.8,137.2c-1.6-1.4-5-0.2-4.6,4.2c0.3,4.3,3.4,13.2,10.1,14.3c2.2,0.2,2.5-1,1.7-3
				C75.2,150.7,71.4,139.6,68.8,137.2z"/>
			<path id="left-ear" class="st2" d="M188.4,137.2c1.6-1.4,5-0.2,4.6,4.2c-0.3,4.3-3.4,13.2-10.1,14.3c-2.2,0.2-2.5-1-1.7-3
				C182,150.7,185.7,139.6,188.4,137.2z"/>
			<path id="XMLID_98_" class="st2" d="M129.6,43c-59.4,0-68.1,51-66.6,73c1.5,22.1,8.3,28.7,10.1,34.6c1.8,5.9,0.6,9.6,1.7,17.4
				c1,7.1,10.5,19.9,55.3,23c42-2.9,49.6-19.6,50.4-23c2-7.9,0-13.3,2.7-18.8c2.6-5.5,9.4-14.3,9.7-38.2S180.1,43,129.6,43z"/>
			<path id="mouth" class="st3" d="M121,174.5c1.9,1.6,6,2.6,7.8,2.6c1.4,0,6-0.4,8.3-2.6"/>
			<path id="right-eyebrow" class="st3" d="M100.5,118.2c-1.3-1.6-6.2-3.5-10.6-3.3s-10.2,3.8-10.2,3.8"/>
			<path id="left-eyebrow" class="st3" d="M152.6,118.2c1.3-1.6,6.2-3.5,10.6-3.3s10.2,3.8,10.2,3.8"/>
			<g id="right-eye">
				<ellipse id="XMLID_97_" class="st4" cx="95.2" cy="144.4" rx="14.4" ry="15.4"/>
				<ellipse id="XMLID_96_" class="st5" cx="94.3" cy="142.4" rx="12.2" ry="13.1"/>
				<ellipse id="XMLID_95_" class="st6" cx="84.2" cy="145.8" rx="1.4" ry="1.4"/>
				<ellipse id="XMLID_94_" class="st6" cx="102.5" cy="154.4" rx="2.2" ry="2.4"/>
			</g>
			<g id="left-eye">
				<ellipse id="XMLID_93_" class="st4" cx="162" cy="144.4" rx="14.4" ry="15.4"/>
				<ellipse id="XMLID_92_" class="st5" cx="161.1" cy="142.4" rx="12.2" ry="13.1"/>
				<ellipse id="XMLID_91_" class="st6" cx="151.1" cy="145.8" rx="1.4" ry="1.4"/>
				<ellipse id="XMLID_90_" class="st6" cx="169.4" cy="154.4" rx="2.2" ry="2.4"/>
			</g>
		</g>
		<g id="front-hair">
			<path id="XMLID_89_" class="st0" d="M193.8,125c4-20.8,7.2-55-29-80.9c-29.8-17.7-60.8-8-61.7-5.1c-3.3-0.9-30.3,4.6-41.3,40
				c0,0-4.1,22.1,2.4,61.7c0,0,0.9-4.1,4.7-0.6c2,4.4,3.5,7.2,3.5,7.2s-5.8-26.8,4.1-44.3s101.8-16.4,105.8-2.3
				c3.3,11.8,6.7,24.2,4.7,31.8c-0.8,3.1-1.7,9.3-1.4,10.9c1.4-3.1,2.9-3.8,2.9-3.8C189.7,135.9,193,129.1,193.8,125z"/>
			<path id="XMLID_88_" class="st0" d="M155.3,78.9c5.3,4.4,17.5,13.6,23.6,30c6.2,16.4,7.3,53-9.2,64.3c10.3-6.7,16.7-16.2,20-33.4
				c2.7-11.2,9.6-54.7-26.7-85.3"/>
			<path id="XMLID_87_" class="st0" d="M110.5,47.2c20.5-10.3,45.5,8.8,60,34.6c10.3,18.3,7.3,39.8,6.5,41
				c-0.8,1.2-15.3,0.7-16.8,0.5c1.4-1.7,2-9.5-3.1-16.8c1.5,4.5,2.7,13.5-3.1,17c1.1-4.7,0.1-12.3-1.7-16.1"/>
			<path id="XMLID_86_" class="st0" d="M104.7,52.6c-15.3,4.7-27.3,45.9-28.3,60.6s-2.5,51.5,8.8,58.5
				c-14.2-11.3-16.9-25.2-19.3-49.1c-0.9-15.3,1.3-37.4,5.6-45.7"/>
			<path id="XMLID_85_" class="st0" d="M104.7,51.8c-12.4-1.7-24.1,17.2-27.4,30c-5.3,20-5,39.8-4.2,41s13.5,0.8,15,0.6
				c-1.1-4.7-2.2-9.6,2.1-16.8c-0.5,4.7-2.9,12.4,4.7,17c-1.8-6.5,0.9-12.1,2.8-16c0,0-3.9,8.5,1.1,16.2c5.9,0.5,16-0.8,16-0.8
				s-6-18.3,3.8-27.9"/>
			<path id="XMLID_84_" class="st0" d="M116.6,52.6c8.5-4.5,24.6,10.6,33.1,31.4s-0.2,39.5-2.5,39.5c-2.3,0-12.6,0.2-14.8,0.1
				c-2.2-0.2-3.2-17-4-20.5c-2.7,6.2-1.7,18.7,0.3,20.5c-3.5-3.4-10.9-7.6-10.8-26.2c0,0-6.2,8.5,2.5,25.4c0,0-20-9.1-8.2-41.9"/>
		</g>
		<g id="glasses">
			<path id="XMLID_83_" class="st7" d="M75.4,138.7c-5.2,4.9-2.6,24.3,10.5,27.4c15.3,3.6,25.4,0.5,29.8-2.8
				c7.4-5.6,8.7-21.4-0.3-24.7C106.6,135.4,80.7,133.6,75.4,138.7z"/>
			<path id="XMLID_82_" class="st7" d="M182,138.7c5.2,4.9,2.6,24.3-10.5,27.4c-15.3,3.6-25.4,0.5-29.8-2.8
				c-7.4-5.6-8.7-21.4,0.3-24.7C150.8,135.4,176.7,133.6,182,138.7z"/>
			<path id="XMLID_81_" class="st7" d="M120.4,143.6c1.6-1.5,5-2.6,8-2.4c3,0.2,6.2,0.8,8.5,2.4"/>
		</g>
	</g>
	<g id="XMLID_80_">
		<path id="neck" class="st2" d="M147.3,218.5c0.3-6.1-0.6-15.1-6.4-15.5c-4.3-0.3-0.1-13.1-2.1-12.8c-7.3,1-9.2,1.2-18.6-0.2
			c-1.6-0.2,1.4,12.7-3.1,13.7c-4.4,1-5.7,5.1-5.3,14.4L147.3,218.5z"/>
	</g>
	<g id="cloth">
		<path id="XMLID_76_" class="st8" d="M158.6,204.1c-4.5-2.9-11.3-1.2-11.3-1.2l0.2,0.7c-6.5,10-12.4,7.4-18.4,7.2
			c-5.7-0.2-11.5,2.6-18.1-7.3l-2.4-0.2c0,0-7-2.4-12.2,4c-8.5,10.4,18.2,22.5,33.1,21.2C152.1,229,169.4,211.1,158.6,204.1z"/>
		<path id="XMLID_2_" class="st9" d="M157.8,255c-1.1-2.7-2-5.2-2.6-7.4c-1.8-7.6-3-22.8-3-22.8l15.6,30.2h17
			c0,0-16.1-38.3-20.5-46.2c-1.7-3-6.7-6.1-11.5-6.5c-4.8-0.4-3.1,0.3-3.1,0.3c-0.7,10.6-13.9,17.3-21,17.4
			c-8.1,0.1-19.9-10.5-20.2-16.7c0-0.8-1.7-0.7-6.1-0.5s-7.2,4.4-9.1,9.4c-1.6,4.2-11.6,42.8-11.6,42.8h16l8.9-30.2
			c0,0-0.4,10.9-1.6,22.8c-0.2,2.3-0.9,4.8-1.9,7.4L157.8,255z"/>
		<path id="XMLID_68_" class="st10" d="M119.8,196.7l-8.2,3.4c0,0-0.7,4.6-0.6,5.9c0,1.3,3.6,8.5,10.7,15.8l7.3-10.4l8.4,10.4
			c0,0,8-8.3,10.8-14.4c0.3-2.5-1.8-6.9-1.8-6.9l-7.4-2.9l-0.5,3.4l1.3,0.6c0,0-6,7.5-10.8,8.5c-6.8-2.7-9.9-9.3-9.9-9.3l1.1-0.5
			L119.8,196.7z"/>
	</g>
</g>
</svg>
